<svg width="140" height="35" viewBox="0 0 140 35" fill="#AFD3E2" xmlns="http://www.w3.org/2000/svg">
<g clip-path="url(#clip0_2_509)">
<path d="M36.7989 12.4957H50.9714V15.14H45.3988V30.0045H42.3344V15.14H36.7865V12.4957H36.7989ZM50.366 17.327H52.9855V19.7735H53.0349C53.1214 19.4276 53.282 19.0939 53.5168 18.7727C53.7516 18.4514 54.0358 18.1425 54.3694 17.883C54.703 17.6112 55.0737 17.4011 55.4815 17.2282C55.8892 17.0675 56.3093 16.981 56.7294 16.981C57.0507 16.981 57.2855 16.9934 57.409 17.0057C57.5326 17.0181 57.6562 17.0428 57.7921 17.0552V19.7488C57.5944 19.7118 57.3967 19.687 57.1866 19.6623C56.9766 19.6376 56.7789 19.6253 56.5812 19.6253C56.1116 19.6253 55.6668 19.7241 55.2467 19.9095C54.8266 20.0948 54.4682 20.379 54.1593 20.7373C53.8504 21.108 53.6033 21.5528 53.418 22.0965C53.2326 22.6402 53.1461 23.258 53.1461 23.9623V29.9921H50.3536V17.327H50.366ZM70.6302 30.0045H67.8871V28.2375H67.8377C67.4917 28.8801 66.9851 29.3867 66.3055 29.7697C65.6259 30.1528 64.934 30.3505 64.2297 30.3505C62.5616 30.3505 61.3507 29.9427 60.6093 29.1148C59.8679 28.287 59.4972 27.039 59.4972 25.3709V17.327H62.2897V25.0991C62.2897 26.2111 62.4998 27.0019 62.9323 27.4591C63.3524 27.9163 63.9578 28.1511 64.7239 28.1511C65.317 28.1511 65.7989 28.0646 66.1943 27.8792C66.5897 27.6939 66.911 27.4591 67.1457 27.1502C67.3928 26.8537 67.5658 26.483 67.677 26.0629C67.7882 25.6427 67.8377 25.1856 67.8377 24.6913V17.3394H70.6302V30.0045ZM75.3873 25.9393C75.4738 26.7548 75.7827 27.3232 76.314 27.6568C76.8577 27.9781 77.5002 28.1511 78.254 28.1511C78.5134 28.1511 78.81 28.1263 79.1436 28.0893C79.4772 28.0522 79.7985 27.9657 80.0827 27.8545C80.3792 27.7433 80.614 27.5703 80.8117 27.3479C80.997 27.1255 81.0835 26.8413 81.0712 26.483C81.0588 26.1246 80.9229 25.8281 80.6758 25.6057C80.4287 25.3709 80.1198 25.1979 79.7367 25.0496C79.3537 24.9137 78.9212 24.7902 78.4269 24.6913C77.9327 24.5925 77.4385 24.4813 76.9319 24.3701C76.4129 24.2588 75.9063 24.1106 75.4244 23.9499C74.9425 23.7893 74.51 23.5669 74.127 23.2827C73.7439 23.0109 73.435 22.6525 73.2126 22.2201C72.9779 21.7876 72.8667 21.2563 72.8667 20.6138C72.8667 19.9218 73.0396 19.3534 73.3733 18.8839C73.7069 18.4144 74.1393 18.0437 74.646 17.7595C75.1649 17.4753 75.7333 17.2776 76.3635 17.154C76.9936 17.0428 77.5991 16.981 78.1675 16.981C78.8224 16.981 79.4525 17.0552 80.0456 17.1911C80.6387 17.327 81.1824 17.5494 81.6643 17.8707C82.1462 18.1796 82.5416 18.5873 82.8628 19.0816C83.1841 19.5758 83.3818 20.1813 83.4683 20.8856H80.5522C80.4163 20.2184 80.1198 19.7612 79.6379 19.5388C79.156 19.304 78.5999 19.1928 77.9821 19.1928C77.7844 19.1928 77.5497 19.2052 77.2778 19.2422C77.006 19.2793 76.7589 19.3411 76.5117 19.4276C76.277 19.5141 76.0793 19.65 75.9063 19.823C75.7457 19.996 75.6592 20.2184 75.6592 20.5026C75.6592 20.8485 75.7827 21.1204 76.0175 21.3304C76.2523 21.5405 76.5612 21.7135 76.9442 21.8617C77.3272 21.9977 77.7597 22.1212 78.254 22.2201C78.7482 22.3189 79.2548 22.4301 79.7738 22.5413C80.2804 22.6525 80.7746 22.8008 81.2689 22.9614C81.7631 23.1221 82.1956 23.3445 82.5786 23.6287C82.9617 23.9129 83.2706 24.2588 83.5054 24.679C83.7401 25.0991 83.8637 25.6304 83.8637 26.2482C83.8637 27.0019 83.6907 27.6321 83.3447 28.1634C82.9988 28.6824 82.5539 29.1148 82.0103 29.4361C81.4666 29.7574 80.8488 30.0045 80.1815 30.1528C79.5143 30.301 78.8471 30.3752 78.1922 30.3752C77.389 30.3752 76.6477 30.2887 75.9681 30.1033C75.2885 29.918 74.6954 29.6462 74.2011 29.2878C73.7069 28.9171 73.3115 28.46 73.0273 27.9163C72.7431 27.3726 72.5948 26.7177 72.5701 25.964H75.3873V25.9393ZM84.6051 17.327H86.718V13.5213H89.5105V17.327H92.0312V19.4152H89.5105V26.1864C89.5105 26.483 89.5228 26.7301 89.5475 26.9525C89.5723 27.1626 89.634 27.3479 89.7205 27.4962C89.807 27.6445 89.9429 27.7557 90.1283 27.8298C90.3136 27.9039 90.5484 27.941 90.8697 27.941C91.0674 27.941 91.2651 27.941 91.4628 27.9286C91.6605 27.9163 91.8582 27.8916 92.0559 27.8422V30.0045C91.747 30.0416 91.438 30.0663 91.1539 30.1033C90.8573 30.1404 90.5608 30.1528 90.2519 30.1528C89.5105 30.1528 88.9174 30.0786 88.4726 29.9427C88.0277 29.8068 87.6694 29.5967 87.4223 29.3249C87.1628 29.0531 87.0022 28.7194 86.9033 28.3117C86.8168 27.9039 86.755 27.4344 86.7427 26.9154V19.4399H84.6298V17.327H84.6051ZM94.0081 17.327H96.6524V19.0445H96.7018C97.0972 18.3032 97.6409 17.7842 98.3452 17.4629C99.0495 17.1417 99.8032 16.981 100.631 16.981C101.632 16.981 102.497 17.154 103.238 17.5124C103.98 17.8583 104.597 18.3402 105.092 18.958C105.586 19.5758 105.944 20.2925 106.191 21.108C106.438 21.9235 106.562 22.8008 106.562 23.7275C106.562 24.5801 106.451 25.408 106.228 26.1988C106.006 27.0019 105.672 27.7062 105.228 28.324C104.783 28.9419 104.214 29.4237 103.522 29.7944C102.83 30.1651 102.027 30.3505 101.088 30.3505C100.681 30.3505 100.273 30.3134 99.865 30.2393C99.4572 30.1651 99.0618 30.0416 98.6911 29.8809C98.3205 29.7203 97.9621 29.5102 97.6532 29.2508C97.332 28.9913 97.0725 28.6947 96.8501 28.3611H96.8006V34.6875H94.0081V17.327ZM103.77 23.6781C103.77 23.1097 103.695 22.5537 103.547 22.01C103.399 21.4663 103.176 20.9968 102.88 20.5767C102.583 20.1566 102.213 19.823 101.78 19.5758C101.335 19.3287 100.829 19.1928 100.26 19.1928C99.0865 19.1928 98.1969 19.6006 97.6038 20.4161C97.0107 21.2316 96.7142 22.3189 96.7142 23.6781C96.7142 24.3206 96.7883 24.9137 96.9489 25.4574C97.1096 26.0011 97.332 26.4706 97.6532 26.866C97.9621 27.2614 98.3328 27.5703 98.7653 27.7927C99.1978 28.0275 99.7044 28.1387 100.273 28.1387C100.915 28.1387 101.447 28.0028 101.891 27.7433C102.336 27.4838 102.695 27.1378 102.979 26.7301C103.263 26.31 103.473 25.8404 103.597 25.3091C103.708 24.7778 103.77 24.2341 103.77 23.6781ZM108.7 12.4957H111.492V15.14H108.7V12.4957ZM108.7 17.327H111.492V30.0045H108.7V17.327ZM113.988 12.4957H116.781V30.0045H113.988V12.4957ZM125.344 30.3505C124.33 30.3505 123.428 30.1775 122.638 29.8439C121.847 29.5102 121.179 29.0407 120.623 28.46C120.08 27.8669 119.66 27.1626 119.375 26.347C119.091 25.5315 118.943 24.6295 118.943 23.6534C118.943 22.6896 119.091 21.8 119.375 20.9844C119.66 20.1689 120.08 19.4646 120.623 18.8715C121.167 18.2784 121.847 17.8213 122.638 17.4876C123.428 17.154 124.33 16.981 125.344 16.981C126.357 16.981 127.259 17.154 128.05 17.4876C128.84 17.8213 129.508 18.2908 130.064 18.8715C130.607 19.4646 131.027 20.1689 131.312 20.9844C131.596 21.8 131.744 22.6896 131.744 23.6534C131.744 24.6295 131.596 25.5315 131.312 26.347C131.027 27.1626 130.607 27.8669 130.064 28.46C129.52 29.0531 128.84 29.5102 128.05 29.8439C127.259 30.1775 126.357 30.3505 125.344 30.3505ZM125.344 28.1387C125.961 28.1387 126.505 28.0028 126.962 27.7433C127.419 27.4838 127.79 27.1378 128.087 26.7177C128.383 26.2976 128.593 25.8157 128.741 25.2844C128.877 24.7531 128.952 24.2094 128.952 23.6534C128.952 23.1097 128.877 22.5784 128.741 22.0347C128.606 21.4911 128.383 21.0215 128.087 20.6014C127.79 20.1813 127.419 19.8477 126.962 19.5882C126.505 19.3287 125.961 19.1928 125.344 19.1928C124.726 19.1928 124.182 19.3287 123.725 19.5882C123.268 19.8477 122.897 20.1937 122.6 20.6014C122.304 21.0215 122.094 21.4911 121.946 22.0347C121.81 22.5784 121.735 23.1097 121.735 23.6534C121.735 24.2094 121.81 24.7531 121.946 25.2844C122.081 25.8157 122.304 26.2976 122.6 26.7177C122.897 27.1378 123.268 27.4838 123.725 27.7433C124.182 28.0151 124.726 28.1387 125.344 28.1387ZM132.56 17.327H134.672V13.5213H137.465V17.327H139.986V19.4152H137.465V26.1864C137.465 26.483 137.477 26.7301 137.502 26.9525C137.527 27.1626 137.589 27.3479 137.675 27.4962C137.762 27.6445 137.897 27.7557 138.083 27.8298C138.268 27.9039 138.503 27.941 138.824 27.941C139.022 27.941 139.22 27.941 139.417 27.9286C139.615 27.9163 139.813 27.8916 140.01 27.8422V30.0045C139.701 30.0416 139.393 30.0663 139.108 30.1033C138.812 30.1404 138.515 30.1528 138.206 30.1528C137.465 30.1528 136.872 30.0786 136.427 29.9427C135.982 29.8068 135.624 29.5967 135.377 29.3249C135.117 29.0531 134.957 28.7194 134.858 28.3117C134.771 27.9039 134.71 27.4344 134.697 26.9154V19.4399H132.584V17.327H132.56Z" fill="white"/>
<path d="M33.5368 12.4957H20.7358L16.7818 0.3125L12.8154 12.4957L0.0144043 12.4834L10.3813 20.0207L6.41493 32.1915L16.7818 24.6666L27.1363 32.1915L23.1823 20.0207L33.5368 12.4957Z" fill="#19A7CE"/>
<path d="M24.072 22.7761L23.1823 20.0207L16.7818 24.6666L24.072 22.7761Z" fill="#AFD3E2"/>
</g>
<defs>
<clipPath id="clip0_2_509">
<rect width="139.971" height="34.375" fill="#AFD3E2" transform="translate(0.0144043 0.3125)"/>
</clipPath>
</defs>
</svg>
