<svg width="107" height="21" viewBox="0 0 107 21" fill="none" xmlns="http://www.w3.org/2000/svg">
<g clip-path="url(#clip0_1_212)">
<path d="M19.9988 0.190613H0V20.1894H19.9988V0.190613Z" fill="#00B67A"/>
<path d="M41.6641 0.190613H21.6653V20.1894H41.6641V0.190613Z" fill="#00B67A"/>
<path d="M63.3294 0.190613H43.3306V20.1894H63.3294V0.190613Z" fill="#00B67A"/>
<path d="M84.9947 0.190613H64.9959V20.1894H84.9947V0.190613Z" fill="#00B67A"/>
<path d="M106.66 0.190613H86.6612V20.1894H106.66V0.190613Z" fill="#00B67A"/>
<path d="M9.99937 13.669L13.0408 12.8982L14.3116 16.8146L9.99937 13.669ZM16.9989 8.60678H11.6451L9.99937 3.56543L8.35364 8.60678H2.99981L7.33287 11.7316L5.68714 16.7729L10.0202 13.6481L12.6867 11.7316L16.9989 8.60678Z" fill="white"/>
<path d="M31.6647 13.669L34.7062 12.8982L35.9769 16.8146L31.6647 13.669ZM38.6642 8.60678H33.3104L31.6647 3.56543L30.019 8.60678H24.6651L28.9982 11.7316L27.3525 16.7729L31.6855 13.6481L34.352 11.7316L38.6642 8.60678Z" fill="white"/>
<path d="M53.33 13.669L56.3715 12.8982L57.6422 16.8146L53.33 13.669ZM60.3296 8.60678H54.9757L53.33 3.56543L51.6843 8.60678H46.3304L50.6635 11.7316L49.0178 16.7729L53.3508 13.6481L56.0173 11.7316L60.3296 8.60678Z" fill="white"/>
<path d="M74.9953 13.669L78.0368 12.8982L79.3075 16.8146L74.9953 13.669ZM81.9949 8.60678H76.641L74.9953 3.56543L73.3496 8.60678H67.9958L72.3288 11.7316L70.6831 16.7729L75.0161 13.6481L77.6826 11.7316L81.9949 8.60678Z" fill="white"/>
<path d="M96.6606 13.669L99.7021 12.8982L100.973 16.8146L96.6606 13.669ZM103.66 8.60678H98.3064L96.6606 3.56543L95.0149 8.60678H89.6611L93.9941 11.7316L92.3484 16.7729L96.6815 13.6481L99.348 11.7316L103.66 8.60678Z" fill="white"/>
</g>
<defs>
<clipPath id="clip0_1_212">
<rect width="106.66" height="19.9988" fill="white" transform="translate(0 0.190613)"/>
</clipPath>
</defs>
</svg>
