<svg width="16" height="16" viewBox="0 0 16 16" fill="none" xmlns="http://www.w3.org/2000/svg">
<mask id="mask0_1_190" style="mask-type:luminance" maskUnits="userSpaceOnUse" x="0" y="0" width="16" height="16">
<path d="M0 0H16V16H0V0Z" fill="white"/>
</mask>
<g mask="url(#mask0_1_190)">
<path fill-rule="evenodd" clip-rule="evenodd" d="M4.622 0.933014L4.662 0.990014L4.665 0.996014L6.37 3.60401L6.372 3.60701C6.60421 3.97311 6.68778 4.41409 6.60562 4.83976C6.52346 5.26543 6.28178 5.64364 5.93 5.89701L5.894 5.92601C5.502 6.25101 5.267 6.44501 5.242 6.77601C5.216 7.14001 5.448 7.86601 6.804 9.22101C8.16 10.578 8.877 10.801 9.23 10.771C9.548 10.744 9.733 10.519 10.046 10.139L10.103 10.07C10.3564 9.71823 10.7346 9.47655 11.1603 9.39439C11.5859 9.31223 12.0269 9.3958 12.393 9.62801L12.396 9.63001L15.004 11.335L15.01 11.339C15.214 11.48 15.464 11.709 15.659 11.984C15.847 12.251 16.035 12.639 15.969 13.074C15.938 13.287 15.822 13.569 15.664 13.848C15.4677 14.1915 15.2274 14.5079 14.949 14.789C14.323 15.422 13.377 16 12.1 16C10.864 16 9.531 15.517 8.223 14.754C6.908 13.986 5.581 12.914 4.346 11.679C3.112 10.444 2.033 9.11801 1.26 7.80001C0.49 6.49001 0 5.15001 0 3.90001C0 2.62601 0.52 1.68501 1.144 1.05501C1.751 0.442014 2.478 0.0980135 2.954 0.0300135C3.461 -0.0419865 3.85 0.118014 4.136 0.357014C4.36 0.544014 4.523 0.787014 4.622 0.933014ZM3.495 1.12401C3.44106 1.07668 3.37679 1.04262 3.30734 1.02456C3.23788 1.0065 3.16516 1.00495 3.095 1.02001C2.872 1.05201 2.337 1.27001 1.855 1.75801C1.393 2.22701 1 2.92401 1 3.90001C1 4.90101 1.398 6.06101 2.122 7.29401C2.842 8.52001 3.862 9.78001 5.054 10.972C6.244 12.162 7.504 13.176 8.727 13.89C9.957 14.608 11.111 15 12.1 15C13.049 15 13.752 14.578 14.238 14.086C14.483 13.839 14.668 13.578 14.794 13.356C14.928 13.119 14.975 12.963 14.98 12.926C14.99 12.861 14.966 12.736 14.841 12.56C14.7313 12.4075 14.5976 12.2737 14.445 12.164L11.855 10.471C11.703 10.3753 11.5201 10.3416 11.344 10.377C11.168 10.4123 11.0122 10.514 10.909 10.661L10.898 10.678L10.885 10.694L10.805 10.792C10.544 11.122 10.082 11.702 9.314 11.767C8.473 11.837 7.464 11.297 6.096 9.92901C4.727 8.55901 4.184 7.54801 4.246 6.70401C4.302 5.92101 4.884 5.45401 5.216 5.18701L5.306 5.11501L5.322 5.10201L5.338 5.09101C5.48514 4.98796 5.58703 4.83228 5.62258 4.65619C5.65814 4.4801 5.62463 4.29708 5.529 4.14501L3.835 1.55501L3.784 1.47901C3.68 1.32701 3.603 1.21401 3.495 1.12401Z" fill="#1C1C1C"/>
</g>
</svg>
