<svg width="134" height="23" viewBox="0 0 134 23" fill="none" xmlns="http://www.w3.org/2000/svg">
<rect y="0.390625" width="133.391" height="22" rx="2" fill="#B1F2D0"/>
<g clip-path="url(#clip0_14_54)">
<path d="M8.75 7.64062C8.75 7.2428 8.90804 6.86127 9.18934 6.57996C9.47064 6.29866 9.85218 6.14063 10.25 6.14062H17.75C18.1478 6.14062 18.5294 6.29866 18.8107 6.57996C19.092 6.86127 19.25 7.2428 19.25 7.64062V13.6324C19.25 13.9378 19.1568 14.2359 18.9829 14.487C18.8089 14.738 18.5625 14.9299 18.2765 15.0371L14.5265 16.4434C14.1867 16.5709 13.8133 16.5709 13.4735 16.4434L9.7235 15.0371C9.43752 14.9299 9.19108 14.738 9.01711 14.487C8.84315 14.2359 8.74996 13.9378 8.75 13.6324V7.64062Z" fill="#0E7946"/>
<path d="M16.7135 9.98062C16.7746 9.91975 16.8231 9.84745 16.8562 9.76785C16.8893 9.68825 16.9064 9.6029 16.9066 9.51668C16.9067 9.43046 16.8899 9.34506 16.857 9.26535C16.8241 9.18564 16.7759 9.11318 16.715 9.05212C16.6541 8.99105 16.5818 8.94258 16.5022 8.90945C16.4226 8.87633 16.3373 8.85921 16.2511 8.85907C16.1649 8.85893 16.0795 8.87578 15.9997 8.90864C15.92 8.94151 15.8476 8.98975 15.7865 9.05062L13.2725 11.5556L12.245 10.3759C12.1306 10.2446 11.9688 10.1641 11.7951 10.1522C11.6214 10.1402 11.45 10.1977 11.3188 10.3121C11.1875 10.4265 11.107 10.5883 11.0951 10.762C11.0831 10.9357 11.1406 11.1071 11.255 11.2384L12.581 12.7609C12.6118 12.7961 12.6455 12.8276 12.6823 12.8546C12.734 12.9392 12.8043 13.0109 12.8877 13.0645C12.9712 13.118 13.0657 13.1519 13.1641 13.1637C13.2626 13.1754 13.3624 13.1647 13.4561 13.1324C13.5499 13.1 13.635 13.0469 13.7053 12.9769L16.7128 9.98062H16.7135Z" fill="white"/>
</g>
<path d="M25.3505 8.1179L27.1083 13.6435H27.1758L28.9372 8.1179H30.6417L28.1346 15.3906H26.1531L23.6424 8.1179H25.3505ZM31.6271 15.3906V8.1179H36.5276V9.38565H33.1647V11.1186H36.2755V12.3864H33.1647V14.1229H36.5418V15.3906H31.6271ZM37.8601 15.3906V8.1179H40.7294C41.2787 8.1179 41.7474 8.21615 42.1357 8.41264C42.5263 8.60677 42.8234 8.88258 43.027 9.24006C43.233 9.59517 43.336 10.013 43.336 10.4936C43.336 10.9766 43.2318 11.392 43.0235 11.7401C42.8151 12.0857 42.5133 12.3509 42.1179 12.5355C41.7249 12.7202 41.2491 12.8125 40.6904 12.8125H38.7692V11.5767H40.4418C40.7353 11.5767 40.9792 11.5365 41.1733 11.456C41.3674 11.3755 41.5119 11.2547 41.6066 11.0938C41.7036 10.9328 41.7522 10.7327 41.7522 10.4936C41.7522 10.2521 41.7036 10.0485 41.6066 9.88281C41.5119 9.71709 41.3663 9.59162 41.1698 9.50639C40.9756 9.4188 40.7306 9.375 40.4347 9.375H39.3978V15.3906H37.8601ZM41.7877 12.081L43.5952 15.3906H41.8978L40.1293 12.081H41.7877ZM46.0703 8.1179V15.3906H44.5326V8.1179H46.0703ZM47.4453 15.3906V8.1179H52.2607V9.38565H48.983V11.1186H51.9411V12.3864H48.983V15.3906H47.4453ZM54.9426 8.1179V15.3906H53.405V8.1179H54.9426ZM56.3177 15.3906V8.1179H61.2183V9.38565H57.8553V11.1186H60.9661V12.3864H57.8553V14.1229H61.2325V15.3906H56.3177ZM65.1289 15.3906H62.5507V8.1179H65.1502C65.8817 8.1179 66.5114 8.26349 67.0394 8.55469C67.5673 8.84351 67.9733 9.259 68.2574 9.80114C68.5439 10.3433 68.6871 10.992 68.6871 11.7472C68.6871 12.5047 68.5439 13.1558 68.2574 13.7003C67.9733 14.2448 67.5649 14.6626 67.0323 14.9538C66.502 15.245 65.8675 15.3906 65.1289 15.3906ZM64.0884 14.0732H65.0649C65.5195 14.0732 65.9018 13.9927 66.212 13.8317C66.5245 13.6683 66.7588 13.4162 66.9151 13.0753C67.0737 12.732 67.153 12.2893 67.153 11.7472C67.153 11.2098 67.0737 10.7706 66.9151 10.4297C66.7588 10.0888 66.5256 9.83783 66.2155 9.67685C65.9054 9.51586 65.523 9.43537 65.0685 9.43537H64.0884V14.0732ZM78.7775 10.6641H77.2221C77.1937 10.4628 77.1357 10.2841 77.0481 10.1278C76.9605 9.96922 76.848 9.83428 76.7107 9.72301C76.5734 9.61174 76.4148 9.52651 76.2349 9.46733C76.0573 9.40814 75.8644 9.37855 75.656 9.37855C75.2796 9.37855 74.9517 9.47206 74.6724 9.65909C74.393 9.84375 74.1764 10.1136 74.0225 10.4688C73.8686 10.8215 73.7917 11.25 73.7917 11.7543C73.7917 12.2727 73.8686 12.7083 74.0225 13.0611C74.1788 13.4138 74.3966 13.6802 74.6759 13.8601C74.9553 14.04 75.2784 14.13 75.6454 14.13C75.8513 14.13 76.0419 14.1027 76.2171 14.0483C76.3947 13.9938 76.5521 13.9145 76.6894 13.8104C76.8267 13.7038 76.9404 13.5748 77.0303 13.4233C77.1227 13.2718 77.1866 13.099 77.2221 12.9048L78.7775 12.9119C78.7372 13.2457 78.6366 13.5677 78.4756 13.8778C78.317 14.1856 78.1028 14.4614 77.8329 14.7053C77.5654 14.9467 77.2458 15.1385 76.8741 15.2805C76.5048 15.4202 76.0869 15.4901 75.6205 15.4901C74.9718 15.4901 74.3918 15.3433 73.8805 15.0497C73.3715 14.7562 72.969 14.3312 72.6731 13.7749C72.3795 13.2185 72.2327 12.545 72.2327 11.7543C72.2327 10.9612 72.3819 10.2865 72.6802 9.73011C72.9785 9.17377 73.3833 8.75 73.8947 8.45881C74.406 8.16525 74.9813 8.01847 75.6205 8.01847C76.0419 8.01847 76.4325 8.07765 76.7924 8.19602C77.1546 8.31439 77.4754 8.48722 77.7548 8.71449C78.0341 8.93939 78.2614 9.2152 78.4366 9.5419C78.6141 9.86861 78.7278 10.2427 78.7775 10.6641ZM86.6733 11.7543C86.6733 12.5473 86.523 13.2221 86.2224 13.7784C85.9241 14.3348 85.5169 14.7597 85.0008 15.0533C84.487 15.3445 83.9094 15.4901 83.2678 15.4901C82.6215 15.4901 82.0415 15.3433 81.5277 15.0497C81.014 14.7562 80.608 14.3312 80.3097 13.7749C80.0114 13.2185 79.8623 12.545 79.8623 11.7543C79.8623 10.9612 80.0114 10.2865 80.3097 9.73011C80.608 9.17377 81.014 8.75 81.5277 8.45881C82.0415 8.16525 82.6215 8.01847 83.2678 8.01847C83.9094 8.01847 84.487 8.16525 85.0008 8.45881C85.5169 8.75 85.9241 9.17377 86.2224 9.73011C86.523 10.2865 86.6733 10.9612 86.6733 11.7543ZM85.1144 11.7543C85.1144 11.2405 85.0375 10.8073 84.8836 10.4545C84.7321 10.1018 84.5178 9.83428 84.2408 9.65199C83.9638 9.4697 83.6395 9.37855 83.2678 9.37855C82.8961 9.37855 82.5718 9.4697 82.2948 9.65199C82.0178 9.83428 81.8024 10.1018 81.6485 10.4545C81.497 10.8073 81.4212 11.2405 81.4212 11.7543C81.4212 12.268 81.497 12.7012 81.6485 13.054C81.8024 13.4067 82.0178 13.6742 82.2948 13.8565C82.5718 14.0388 82.8961 14.13 83.2678 14.13C83.6395 14.13 83.9638 14.0388 84.2408 13.8565C84.5178 13.6742 84.7321 13.4067 84.8836 13.054C85.0375 12.7012 85.1144 12.268 85.1144 11.7543ZM87.9224 8.1179H89.8187L91.8215 13.0043H91.9067L93.9096 8.1179H95.8059V15.3906H94.3144V10.657H94.254L92.3719 15.3551H91.3563L89.4742 10.6392H89.4138V15.3906H87.9224V8.1179ZM97.1828 15.3906V8.1179H100.052C100.604 8.1179 101.074 8.22325 101.462 8.43395C101.85 8.64228 102.146 8.93229 102.35 9.30398C102.556 9.6733 102.659 10.0994 102.659 10.5824C102.659 11.0653 102.554 11.4915 102.346 11.8608C102.138 12.2301 101.836 12.5178 101.441 12.7237C101.048 12.9297 100.572 13.0327 100.013 13.0327H98.1842V11.8004H99.7644C100.06 11.8004 100.304 11.7495 100.496 11.6477C100.69 11.5436 100.835 11.4003 100.929 11.218C101.026 11.0334 101.075 10.8215 101.075 10.5824C101.075 10.3409 101.026 10.1302 100.929 9.95028C100.835 9.76799 100.69 9.62713 100.496 9.5277C100.302 9.4259 100.056 9.375 99.7573 9.375H98.7204V15.3906H97.1828ZM104.181 15.3906H102.533L105.044 8.1179H107.026L109.533 15.3906H107.885L106.063 9.77983H106.006L104.181 15.3906ZM104.078 12.532H107.97V13.7322H104.078V12.532ZM116.601 8.1179V15.3906H115.273L112.109 10.8132H112.056V15.3906H110.518V8.1179H111.867L115.007 12.6918H115.071V8.1179H116.601ZM117.555 8.1179H119.278L120.936 11.25H121.007L122.665 8.1179H124.388L121.735 12.8196V15.3906H120.208V12.8196L117.555 8.1179Z" fill="#1C1C1C"/>
<defs>
<clipPath id="clip0_14_54">
<rect width="12" height="12" fill="white" transform="translate(8 5.39062)"/>
</clipPath>
</defs>
</svg>
