<svg width="16" height="16" viewBox="0 0 16 16" fill="none" xmlns="http://www.w3.org/2000/svg">
<path fill-rule="evenodd" clip-rule="evenodd" d="M10.694 1.537C10.911 1.818 11.109 2.129 11.287 2.46C11.608 3.06 11.877 3.747 12.08 4.5H14.063C13.2937 3.17057 12.11 2.12981 10.693 1.537H10.694ZM14.54 5.5H12.305C12.448 6.289 12.525 7.13 12.525 8C12.525 8.87 12.448 9.711 12.305 10.5H14.54C14.837 9.724 15 8.88 15 8C15 7.12 14.837 6.276 14.54 5.5ZM14.064 11.5H12.08C11.8938 12.2079 11.6278 12.8923 11.287 13.54C11.1149 13.8634 10.9166 14.1721 10.694 14.463C12.111 13.8702 13.2947 12.8294 14.064 11.5ZM5.306 14.463C5.08346 14.172 4.88513 13.8633 4.713 13.54C4.37253 12.8922 4.10683 12.2078 3.921 11.5H1.936C2.70531 12.8294 3.88903 13.8702 5.306 14.463ZM1.46 10.5H3.696C3.552 9.711 3.476 8.87 3.476 8C3.476 7.13 3.552 6.289 3.696 5.5H1.46C1.15503 6.29818 0.999111 7.14554 1 8C1 8.88 1.163 9.724 1.46 10.5ZM1.936 4.5H3.921C4.124 3.747 4.391 3.06 4.713 2.46C4.891 2.129 5.089 1.818 5.306 1.537C3.88903 2.12981 2.70531 3.17057 1.936 4.5ZM8 0C5.87827 0 3.84344 0.842855 2.34315 2.34315C0.842855 3.84344 0 5.87827 0 8C0 10.1217 0.842855 12.1566 2.34315 13.6569C3.84344 15.1571 5.87827 16 8 16C10.1217 16 12.1566 15.1571 13.6569 13.6569C15.1571 12.1566 16 10.1217 16 8C16 5.87827 15.1571 3.84344 13.6569 2.34315C12.1566 0.842855 10.1217 0 8 0ZM5.595 2.933C5.348 3.393 5.134 3.92 4.96 4.5H7.5V1.075C6.823 1.279 6.15 1.897 5.595 2.933ZM10.405 2.933C10.652 3.393 10.867 3.92 11.04 4.5H8.5V1.075C9.177 1.279 9.85 1.897 10.406 2.933H10.405ZM8.5 5.5H11.287C11.44 6.274 11.525 7.116 11.525 8C11.525 8.884 11.44 9.726 11.287 10.5H8.5V5.5ZM8.5 11.5H11.04C10.8817 12.0423 10.6693 12.5672 10.406 13.067C9.849 14.103 9.177 14.721 8.5 14.925V11.5ZM7.5 11.5V14.925C6.823 14.721 6.15 14.103 5.595 13.067C5.33133 12.5673 5.11859 12.0423 4.96 11.5H7.5ZM7.5 10.5H4.713C4.55261 9.67638 4.4729 8.83909 4.475 8C4.475 7.116 4.56 6.274 4.713 5.5H7.5V10.5Z" fill="#1C1C1C"/>
</svg>
